<svg width="14" height="13" viewBox="0 0 14 13" fill="none" xmlns="http://www.w3.org/2000/svg">
<path d="M5.93478 0H7.36957V1.34483H5.93478V0Z" fill="#4FD1C5"/>
<path d="M8.73913 0H10.1739V1.34483H8.73913V0Z" fill="#4FD1C5"/>
<path d="M11.6087 0H13.0435V1.34483H11.6087V0Z" fill="#4FD1C5"/>
<path d="M5.93478 5.68966H7.36957V7.03448H5.93478V5.68966Z" fill="#4FD1C5"/>
<path d="M8.73913 5.68966H10.1739V7.03448H8.73913V5.68966Z" fill="#4FD1C5"/>
<path d="M11.6087 5.68966H13.0435V7.03448H11.6087V5.68966Z" fill="#4FD1C5"/>
<path d="M3 11.3793H4.43478V12.7241H3V11.3793Z" fill="#4FD1C5"/>
<path d="M5.93478 11.3793H7.36957V12.7241H5.93478V11.3793Z" fill="#4FD1C5"/>
<path d="M5.93478 3H7.36957V4.34483H5.93478V3Z" fill="#4FD1C5"/>
<path d="M5.93478 8.68966H7.36957V10.0345H5.93478V8.68966Z" fill="#4FD1C5"/>
<path d="M0 11.3793H1.43478V12.7241H0V11.3793Z" fill="#4FD1C5"/>
</svg>
