<svg width="14" height="13" viewBox="0 0 14 13" fill="none" xmlns="http://www.w3.org/2000/svg">
<path d="M3 0H4.43478V1.34483H3V0Z" fill="#4FD1C5"/>
<path d="M5.86957 0H7.30435V1.34483H5.86957V0Z" fill="#4FD1C5"/>
<path d="M8.73913 0H10.1739V1.34483H8.73913V0Z" fill="#4FD1C5"/>
<path d="M11.6087 0H13.0435V1.34483H11.6087V0Z" fill="#4FD1C5"/>
<path d="M3 5.68966H4.43478V7.03448H3V5.68966Z" fill="#4FD1C5"/>
<path d="M5.86957 5.68966H7.30435V7.03448H5.86957V5.68966Z" fill="#4FD1C5"/>
<path d="M8.73913 5.68966H10.1739V7.03448H8.73913V5.68966Z" fill="#4FD1C5"/>
<path d="M11.6087 5.68966H13.0435V7.03448H11.6087V5.68966Z" fill="#4FD1C5"/>
<path d="M3 11.3793H4.43478V12.7241H3V11.3793Z" fill="#4FD1C5"/>
<path d="M5.86957 11.3793H7.30435V12.7241H5.86957V11.3793Z" fill="#4FD1C5"/>
<path d="M8.73913 11.3793H10.1739V12.7241H8.73913V11.3793Z" fill="#4FD1C5"/>
<path d="M11.6087 11.3793H13.0435V12.7241H11.6087V11.3793Z" fill="#4FD1C5"/>
<path d="M0 0H1.43478V1.34483H0V0Z" fill="#4FD1C5"/>
<path d="M0 5.68966H1.43478V7.03448H0V5.68966Z" fill="#4FD1C5"/>
<path d="M0 11.3793H1.43478V12.7241H0V11.3793Z" fill="#4FD1C5"/>
</svg>
