<svg width="14" height="11" viewBox="0 0 14 11" fill="none" xmlns="http://www.w3.org/2000/svg">
<path d="M3 0H4.43478V1.34483H3V0Z" fill="black"/>
<path d="M5.86957 0H7.30435V1.34483H5.86957V0Z" fill="black"/>
<path d="M8.73913 0H10.1739V1.34483H8.73913V0Z" fill="black"/>
<path d="M11.6087 0H13.0435V1.34483H11.6087V0Z" fill="black"/>
<path d="M3 4.68966H4.43478V6.03448H3V4.68966Z" fill="black"/>
<path d="M5.86957 4.68966H7.30435V6.03448H5.86957V4.68966Z" fill="black"/>
<path d="M8.73913 4.68966H10.1739V6.03448H8.73913V4.68966Z" fill="black"/>
<path d="M11.6087 4.68966H13.0435V6.03448H11.6087V4.68966Z" fill="black"/>
<path d="M3 9.37931H4.43478V10.7241H3V9.37931Z" fill="black"/>
<path d="M5.86957 9.37931H7.30435V10.7241H5.86957V9.37931Z" fill="black"/>
<path d="M8.73913 9.37931H10.1739V10.7241H8.73913V9.37931Z" fill="black"/>
<path d="M11.6087 9.37931H13.0435V10.7241H11.6087V9.37931Z" fill="black"/>
<path d="M0 0H1.43478V1.34483H0V0Z" fill="black"/>
<path d="M0 4.68966H1.43478V6.03448H0V4.68966Z" fill="black"/>
<path d="M0 9.37931H1.43478V10.7241H0V9.37931Z" fill="black"/>
</svg>
